<svg id="Layer_4" data-name="Layer 4" xmlns="http://www.w3.org/2000/svg" xmlns:xlink="http://www.w3.org/1999/xlink" viewBox="0 0 27.58 57.31"><defs><style>.cls-1{fill:url(#linear-gradient);}.cls-2{fill:url(#linear-gradient-2);}.cls-3{fill:url(#linear-gradient-3);}.cls-4{fill:url(#linear-gradient-4);}.cls-5{fill:url(#linear-gradient-5);}.cls-6{fill:url(#linear-gradient-6);}</style><linearGradient id="linear-gradient" x1="16.48" y1="53.08" x2="42.82" y2="53.08" gradientUnits="userSpaceOnUse"><stop offset="0" stop-color="#0e6aff"/><stop offset="1" stop-color="#3df"/></linearGradient><linearGradient id="linear-gradient-2" x1="15.87" y1="14.11" x2="43.44" y2="14.11" xlink:href="#linear-gradient"/><linearGradient id="linear-gradient-3" x1="23.19" y1="38.25" x2="36.09" y2="38.25" xlink:href="#linear-gradient"/><linearGradient id="linear-gradient-4" x1="27.93" y1="49.65" x2="31.34" y2="49.65" xlink:href="#linear-gradient"/><linearGradient id="linear-gradient-5" x1="31.69" y1="11.9" x2="38.16" y2="11.9" xlink:href="#linear-gradient"/><linearGradient id="linear-gradient-6" x1="20.23" y1="11.91" x2="28.82" y2="11.91" xlink:href="#linear-gradient"/></defs><title>decision</title><path class="cls-1" d="M25.29,47.87c.86,2.61,1.71,5.18,2.55,7.74,0,0,.06,0,.13,0,.13-1,.26-2,.4-3,.06-.44,0-1,.25-1.27s.85-.1,1.29-.1c.86,0,.85,0,1,.82.15,1.17.31,2.33.52,3.51a58.58,58.58,0,0,0,2.51-7.83l2.26.74c1.39.47,2.79.92,4.16,1.42a6.64,6.64,0,0,1,1.47.77,2.43,2.43,0,0,1,1,2.12c0,1.05,0,2.1,0,3.15A2.21,2.21,0,0,1,42,57.88a2.13,2.13,0,0,1-1.18.43q-11.19,0-22.39,0a2,2,0,0,1-1.94-2.13c0-1.22,0-2.44,0-3.66A2,2,0,0,1,17.28,51,5.75,5.75,0,0,1,18.81,50c2.11-.75,4.24-1.44,6.36-2.15Z" transform="translate(-15.87 -1.02)"/><path class="cls-2" d="M27.92,1c2.27,0,4.54,0,6.82,0a8.48,8.48,0,0,1,8.58,7.14,7,7,0,0,1,.11,1.29c0,2.33,0,4.67,0,7a4.73,4.73,0,0,1-3.7,4.67,6.45,6.45,0,0,1-1.24.14c-1.59,0-3.18,0-4.78,0a.59.59,0,0,0-.66.41c-.66,1.5-1.35,3-2,4.48a1.46,1.46,0,0,1-2.79,0c-.66-1.5-1.35-3-2-4.48a.6.6,0,0,0-.66-.42c-1.56,0-3.12,0-4.68,0a4.78,4.78,0,0,1-5-5V5.81A4.72,4.72,0,0,1,19.5,1.18,5.47,5.47,0,0,1,20.78,1C23.16,1,25.54,1,27.92,1Zm1.72,23.25c.13-.26.2-.39.26-.52.46-1,1-2,1.36-3a2.25,2.25,0,0,1,2.36-1.5c1.67,0,3.34,0,5,0a2.7,2.7,0,0,0,2.77-2.79V9.53a5.77,5.77,0,0,0-.07-1A6.5,6.5,0,0,0,34.73,3H20.91a2.8,2.8,0,0,0-3,3q0,5.15,0,10.29a2.73,2.73,0,0,0,2.91,2.9c1.67,0,3.34,0,5,0A2.1,2.1,0,0,1,28,20.62c.07.17.16.33.23.5Z" transform="translate(-15.87 -1.02)"/><path class="cls-3" d="M29.48,30.09a8.68,8.68,0,0,1,3.27.58,4.14,4.14,0,0,1,2.78,4.92c0,.26-.09.52-.14.78-.09.42-.2.8.31,1.11a1.14,1.14,0,0,1,.39.89,8.74,8.74,0,0,1-.25,2.1,4.1,4.1,0,0,1-.69,1.06,4.18,4.18,0,0,0-.57.91,5.49,5.49,0,0,1-4.23,3.88,4.68,4.68,0,0,1-4.44-1.78,6,6,0,0,1-1.28-2.39,1.82,1.82,0,0,0-.35-.5,5,5,0,0,1-.67-.81,4.5,4.5,0,0,1-.37-2.63,1.58,1.58,0,0,1,.61-.91.54.54,0,0,0,.22-.56C24,35.69,24,34.65,24,33.6a1.72,1.72,0,0,1,1.11-1.53,1.18,1.18,0,0,0,.53-.43,3.19,3.19,0,0,1,2.77-1.49C28.77,30.11,29.13,30.11,29.48,30.09Z" transform="translate(-15.87 -1.02)"/><path class="cls-4" d="M29.66,48.58h.74c.83,0,1.12.53.83,1.31s-.6.94-1.29.81a2.36,2.36,0,0,0-.46,0c-1.1,0-1.1,0-1.5-1a.82.82,0,0,1,.71-1.07Z" transform="translate(-15.87 -1.02)"/><path class="cls-5" d="M34.92,10.54c.56-.58,1-1.1,1.52-1.58a1,1,0,0,1,1.67.53,1.44,1.44,0,0,1-.36,1,17.18,17.18,0,0,1-1.43,1.38l1.42,1.45a1,1,0,0,1,.11,1.55,1,1,0,0,1-1.52-.11L35,13.44s0,0-.2-.07c-.4.42-.82.89-1.26,1.33a1,1,0,0,1-1.58.12,1.07,1.07,0,0,1,.17-1.56L33.36,12a.71.71,0,0,0,.07-.15c-.4-.41-.83-.82-1.23-1.26a1.92,1.92,0,0,1-.47-.71.92.92,0,0,1,.44-1.08A1.06,1.06,0,0,1,33.41,9C33.9,9.45,34.37,10,34.92,10.54Z" transform="translate(-15.87 -1.02)"/><path class="cls-6" d="M23.35,12.59l2.29-2.19c.47-.45.92-.91,1.4-1.36a1,1,0,1,1,1.42,1.47q-2.19,2.13-4.39,4.25a1,1,0,0,1-1.52,0c-.68-.65-1.35-1.32-2-2a1,1,0,0,1,0-1.46,1.09,1.09,0,0,1,1.5,0l1.22,1.21S23.28,12.56,23.35,12.59Z" transform="translate(-15.87 -1.02)"/></svg>