<svg id="Layer_1" data-name="Layer 1" xmlns="http://www.w3.org/2000/svg" xmlns:xlink="http://www.w3.org/1999/xlink" viewBox="0 0 50.61 57.44"><defs><style>.cls-1{fill:url(#linear-gradient);}.cls-2{fill:url(#linear-gradient-2);}.cls-3{fill:url(#linear-gradient-3);}.cls-4{fill:url(#linear-gradient-4);}.cls-5{fill:url(#linear-gradient-5);}.cls-6{fill:url(#linear-gradient-6);}</style><linearGradient id="linear-gradient" x1="46.85" y1="18.34" x2="55.4" y2="18.34" gradientUnits="userSpaceOnUse"><stop offset="0" stop-color="#0e6aff"/><stop offset="1" stop-color="#3df"/></linearGradient><linearGradient id="linear-gradient-2" x1="13.35" y1="21.18" x2="39.01" y2="21.18" xlink:href="#linear-gradient"/><linearGradient id="linear-gradient-3" x1="36.81" y1="42.59" x2="51.12" y2="42.59" xlink:href="#linear-gradient"/><linearGradient id="linear-gradient-4" x1="4.79" y1="46.83" x2="34.73" y2="46.83" xlink:href="#linear-gradient"/><linearGradient id="linear-gradient-5" x1="36.08" y1="5.06" x2="44.63" y2="5.06" xlink:href="#linear-gradient"/><linearGradient id="linear-gradient-6" x1="24.74" y1="45.4" x2="27.62" y2="45.4" xlink:href="#linear-gradient"/></defs><title>profits</title><path class="cls-1" d="M55.4,18.77c-.57,1.24-1.73.93-2.83,1,0,.45,0,.86,0,1.28a1.44,1.44,0,1,1-2.87,0c0-.39,0-.79,0-1.31-.48,0-.92,0-1.35,0a1.42,1.42,0,1,1,0-2.84H49.7c0-.48,0-.91,0-1.35a1.43,1.43,0,1,1,2.86,0c0,.42,0,.84,0,1.35,1,.05,2.21-.25,2.83.95Z" transform="translate(-4.79 -0.79)"/><path class="cls-2" d="M39,21.1A13.08,13.08,0,0,1,26.18,34,13.09,13.09,0,0,1,13.35,21.17,13,13,0,0,1,26.17,8.35,13.07,13.07,0,0,1,39,21.1Zm-21.2-5.46a10.4,10.4,0,0,0,.45,11.75,10.19,10.19,0,0,0,11.56,3.13c3.68-1.33,6.42-5.13,6.26-8.7C28.58,23.92,22.56,21.65,17.81,15.64Zm2.07-2.35c2.2,5.26,11.28,8.32,16,5.39a9.36,9.36,0,0,0-6.11-6.85A10.26,10.26,0,0,0,19.88,13.29Z" transform="translate(-4.79 -0.79)"/><path class="cls-3" d="M45.38,52.64c0,.88,0,1.74,0,2.6a1.43,1.43,0,1,1-2.83,0c0-.87,0-1.73,0-2.68h-3c-.42,0-.84,0-1.27,0a1.43,1.43,0,0,1-1.41-1.41,1.44,1.44,0,0,1,1.44-1.46H46c.31,0,.62,0,.93,0a1.26,1.26,0,0,0,1-2.13,7.62,7.62,0,0,0-1.52-1.48c-1.66-1.2-3.39-2.3-5-3.54a30,30,0,0,1-3.49-3.08,3.82,3.82,0,0,1-.73-4.35,4.06,4.06,0,0,1,3.51-2.4c.59-.09,1.19-.1,1.86-.15,0-.84,0-1.65,0-2.47,0-1.09.53-1.74,1.4-1.75s1.43.66,1.43,1.79c0,.75,0,1.51,0,2.27a1,1,0,0,0,.08.21h4A1.48,1.48,0,0,1,51.08,34a1.45,1.45,0,0,1-1.59,1.43c-2.47,0-5,0-7.42,0a4.69,4.69,0,0,0-1.06,0c-.41.09-.94.2-1.14.49A1.36,1.36,0,0,0,40,37.63a10.19,10.19,0,0,0,1.53,1.48c1.62,1.18,3.31,2.26,4.91,3.46a32.13,32.13,0,0,1,3.43,3,3.73,3.73,0,0,1,1,4.23,4.48,4.48,0,0,1-3.67,2.74C46.6,52.59,46,52.59,45.38,52.64Z" transform="translate(-4.79 -0.79)"/><path class="cls-4" d="M26.24,35.44a19,19,0,0,1,7.54,1.5,1.43,1.43,0,0,1,.94,1.53,1.37,1.37,0,0,1-1.17,1.2,1.83,1.83,0,0,1-.9-.13A18.26,18.26,0,0,0,8.08,52.77a27.53,27.53,0,0,0-.44,3.84c-.08,1-.57,1.63-1.46,1.61s-1.43-.64-1.39-1.68c.38-8.49,4.43-14.71,11.82-18.76A19.52,19.52,0,0,1,26.24,35.44Z" transform="translate(-4.79 -0.79)"/><path class="cls-5" d="M39,3.63c0-.57,0-1,0-1.49A1.36,1.36,0,0,1,40.4.79a1.38,1.38,0,0,1,1.38,1.34c0,.47,0,.93,0,1.49h1.35a1.42,1.42,0,0,1,1.5,1.44,1.39,1.39,0,0,1-1.47,1.4c-.44,0-.88,0-1.38,0,0,.53,0,1,0,1.4a1.42,1.42,0,1,1-2.83,0c0-.44,0-.88,0-1.41-.53,0-1,0-1.45,0a1.42,1.42,0,1,1,0-2.83C38,3.61,38.41,3.63,39,3.63Z" transform="translate(-4.79 -0.79)"/><path class="cls-6" d="M27.62,45.43c0,.89,0,1.78,0,2.67a1.44,1.44,0,1,1-2.87,0q0-2.67,0-5.34a1.45,1.45,0,1,1,2.87,0C27.63,43.65,27.62,44.54,27.62,45.43Z" transform="translate(-4.79 -0.79)"/></svg>