<svg id="Layer_3" data-name="Layer 3" xmlns="http://www.w3.org/2000/svg" xmlns:xlink="http://www.w3.org/1999/xlink" viewBox="0 0 33.65 54.12"><defs><style>.cls-1{fill:url(#linear-gradient);}.cls-2{fill:url(#linear-gradient-2);}.cls-3{fill:url(#linear-gradient-3);}.cls-4{fill:url(#linear-gradient-4);}.cls-5{fill:url(#linear-gradient-5);}.cls-6{fill:url(#linear-gradient-6);}</style><linearGradient id="linear-gradient" x1="13.32" y1="36.68" x2="37.67" y2="36.68" gradientUnits="userSpaceOnUse"><stop offset="0" stop-color="#0e6aff"/><stop offset="1" stop-color="#3df"/></linearGradient><linearGradient id="linear-gradient-2" x1="20.29" y1="15.81" x2="41.15" y2="15.81" xlink:href="#linear-gradient"/><linearGradient id="linear-gradient-3" x1="35.33" y1="44.42" x2="46.97" y2="44.42" xlink:href="#linear-gradient"/><linearGradient id="linear-gradient-4" x1="21.27" y1="49.43" x2="28.22" y2="49.43" xlink:href="#linear-gradient"/><linearGradient id="linear-gradient-5" x1="16.82" y1="5.38" x2="23.77" y2="5.38" xlink:href="#linear-gradient"/><linearGradient id="linear-gradient-6" x1="29.55" y1="35.51" x2="31.9" y2="35.51" xlink:href="#linear-gradient"/></defs><title>profits</title><path class="cls-1" d="M13.32,43.42c.21-1.06.36-2.14.65-3.18A17.62,17.62,0,0,1,29.24,27.47a15.55,15.55,0,0,1,7.65,1.16,1.15,1.15,0,0,1,.77,1.24,1.12,1.12,0,0,1-1,1,1.69,1.69,0,0,1-.73-.13A14.86,14.86,0,0,0,15.81,42.57c-.09.62-.14,1.26-.17,1.89,0,.86-.26,1.27-.8,1.44s-1,0-1.52-.74Z" transform="translate(-13.32 -1.9)"/><path class="cls-2" d="M41.15,15.72a10.64,10.64,0,0,1-10.4,10.53A10.64,10.64,0,0,1,20.29,15.84,10.59,10.59,0,0,1,30.68,5.38,10.62,10.62,0,0,1,41.15,15.72ZM23.94,11.25a8.47,8.47,0,0,0,.56,9.9,8.4,8.4,0,0,0,9.76,2c2.68-1.23,4.83-4.5,4.48-6.89a12.4,12.4,0,0,1-8.2,0A13.26,13.26,0,0,1,23.94,11.25Zm14.63,2.58a7.52,7.52,0,0,0-5.13-5.7,8.41,8.41,0,0,0-7.86,1.28A10.26,10.26,0,0,0,38.57,13.83Z" transform="translate(-13.32 -1.9)"/><path class="cls-3" d="M40,36.26c0-.74,0-1.44,0-2.15a1.16,1.16,0,1,1,2.3,0c0,.67,0,1.34,0,2,0,0,0,.06.07.15,1.07,0,2.17,0,3.27,0a1.17,1.17,0,0,1,1.18,1.61,1.24,1.24,0,0,1-1.28.73h-5.7c-.38,0-.76,0-1.14,0a1,1,0,0,0-.85,1.66,3.62,3.62,0,0,0,.88.95c1.42,1,2.88,2,4.28,3.07A26.66,26.66,0,0,1,46,46.82a3,3,0,0,1,.78,3.44,3.63,3.63,0,0,1-2.95,2.2,12.94,12.94,0,0,1-1.48.13v2.09a1.16,1.16,0,1,1-2.3,0c0-.69,0-1.38,0-2.16H38.58c-.65,0-1.3,0-1.95,0a1.18,1.18,0,1,1,0-2.34h6.19c.26,0,.51,0,.76,0a1,1,0,0,0,.81-1.71,5.88,5.88,0,0,0-1.23-1.21c-1.34-1-2.76-1.87-4.08-2.88a25,25,0,0,1-2.84-2.5,3.1,3.1,0,0,1-.63-3.53,3.31,3.31,0,0,1,2.89-2C39,36.31,39.44,36.3,40,36.26Z" transform="translate(-13.32 -1.9)"/><path class="cls-4" d="M23.59,48.26c0-.44,0-.81,0-1.17A1.13,1.13,0,0,1,24.74,46a1.15,1.15,0,0,1,1.18,1.16c0,.36,0,.72,0,1.15.39,0,.75,0,1.11,0a1.14,1.14,0,0,1,1.19,1.13A1.12,1.12,0,0,1,27,50.57H25.92c0,.4,0,.74,0,1.08a1.17,1.17,0,1,1-2.33,0c0-.35,0-.69,0-1.11H22.47a1.15,1.15,0,1,1,0-2.3Z" transform="translate(-13.32 -1.9)"/><path class="cls-5" d="M21.45,6.52c0,.44,0,.8,0,1.17a1.16,1.16,0,0,1-1.18,1.16,1.15,1.15,0,0,1-1.12-1.16c0-.36,0-.72,0-1.17-.39,0-.75,0-1.1,0a1.16,1.16,0,1,1,0-2.31h1.08c0-.43,0-.81,0-1.18a1.15,1.15,0,0,1,2.3,0c0,.37,0,.75,0,1.18h1.12a1.16,1.16,0,1,1,0,2.31C22.24,6.53,21.88,6.52,21.45,6.52Z" transform="translate(-13.32 -1.9)"/><path class="cls-6" d="M29.56,35.54c0-.74,0-1.49,0-2.23a1.17,1.17,0,1,1,2.33,0c0,1.49,0,3,0,4.45A1.15,1.15,0,0,1,30.73,39a1.14,1.14,0,0,1-1.17-1.22C29.54,37,29.56,36.28,29.56,35.54Z" transform="translate(-13.32 -1.9)"/></svg>