<?xml version="1.0" encoding="utf-8"?>
<!-- Generator: Adobe Illustrator 23.0.1, SVG Export Plug-In . SVG Version: 6.00 Build 0)  -->
<svg version="1.1" xmlns="http://www.w3.org/2000/svg" xmlns:xlink="http://www.w3.org/1999/xlink" x="0px" y="0px"
	 viewBox="0 0 59.3 59.4" style="enable-background:new 0 0 59.3 59.4;" xml:space="preserve">
<style type="text/css">
	.st0{display:none;}
	.st1{display:inline;}
	.st2{fill:#E7475E;}
	.st3{fill:#322153;}
	.st4{fill:url(#SVGID_1_);}
	.st5{fill:url(#SVGID_2_);}
	.st6{display:inline;fill:url(#SVGID_3_);}
	.st7{display:inline;fill:url(#SVGID_4_);}
	.st8{display:inline;fill:url(#SVGID_5_);}
	.st9{display:inline;fill:url(#SVGID_6_);}
	.st10{display:inline;fill:url(#SVGID_7_);}
	.st11{display:inline;fill:url(#SVGID_8_);}
	.st12{fill:url(#SVGID_9_);}
	.st13{fill:url(#SVGID_10_);}
	.st14{fill:url(#SVGID_11_);}
	.st15{fill:url(#SVGID_12_);}
	.st16{fill:url(#SVGID_13_);}
	.st17{fill:url(#SVGID_14_);}
</style>
<g id="Layer_1" class="st0">
	<g id="target" transform="translate(-.177)" class="st1">
		<circle id="Ellipse_22" class="st2" cx="29.8" cy="33.8" r="16.4"/>
		<g id="Group_149" transform="translate(.177)">
			<path id="Path_313" class="st3" d="M47.6,47.8C47.7,47.8,47.7,47.7,47.6,47.8c10-9.9,10.1-26,0.2-36c0,0-0.1-0.1-0.1-0.1v-0.1
				c0-0.1,0,0-0.1,0c-4.8-4.8-11.3-7.5-18-7.5c-5.1,0-10.1,1.5-14.3,4.4c-0.5,0.3-0.6,1-0.3,1.4c0.3,0.5,1,0.6,1.4,0.3
				c3.6-2.5,7.8-3.9,12.2-4.1v3.1c0,0.5,0.4,1,0.9,1c0,0,0.1,0,0.1,0c10.7,0,19.4,8.7,19.4,19.4c0,0,0,0,0,0c0,0.5,0.4,1,0.9,1
				c0,0,0.1,0,0.1,0h3.1C53,36.2,50.8,41.5,47,45.5l-2.1-2.1c-0.4-0.4-1-0.4-1.4,0s-0.4,1,0,1.4l2.1,2.1c-4.1,3.7-9.3,5.9-14.8,6.1
				V50c0-0.6-0.5-1-1-1c-0.6,0-1,0.5-1,1v3.1c-5.5-0.2-10.8-2.4-14.8-6.1l2.1-2.1c0.4-0.4,0.3-1.1-0.1-1.4c-0.4-0.3-0.9-0.3-1.3,0
				l-2.1,2.1c-3.7-4.1-5.9-9.3-6.1-14.8h3.1c0.6,0,1-0.5,1-1c0-0.6-0.5-1-1-1H6.1c0.2-4.3,1.5-8.4,3.9-12c0.3-0.5,0.2-1.1-0.3-1.4
				c-0.5-0.3-1.1-0.2-1.4,0.3C5.5,19.8,4,24.7,4,29.7c0,6.8,2.7,13.2,7.5,18v0.1c0,0.1,0,0,0.1,0C21.5,57.7,37.7,57.8,47.6,47.8
				C47.6,47.8,47.6,47.8,47.6,47.8L47.6,47.8z M44.1,13.8c-3.7-3.4-8.4-5.3-13.4-5.5V6.1c5.5,0.2,10.8,2.4,14.8,6.1L44.1,13.8z
				 M45.5,15.3l1.4-1.4c3.7,4.1,5.9,9.3,6.1,14.8h-2C50.8,23.7,48.9,18.9,45.5,15.3z"/>
			<path id="Path_314" class="st3" d="M4.7,0.1C4.3,0.2,4,0.6,4.1,1v3.1H1c-0.4,0-0.8,0.2-0.9,0.6C-0.1,5.1,0,5.5,0.3,5.8l4.1,4.1
				c0.2,0.2,0.4,0.3,0.7,0.3h3.7l18.4,18.4h-1.6c-0.6,0-1,0.5-1,1s0.5,1,1,1l0,0h4.1c0.1,0,0.2,0,0.3-0.1H30c0.1,0,0.1-0.1,0.2-0.1
				c0.1,0,0.1,0,0.1-0.1l0,0c0.1-0.1,0.1-0.2,0.2-0.3c0-0.1,0.1-0.2,0.1-0.3v-4.1c0-0.6-0.5-1-1-1s-1,0.5-1,1l0,0v1.6L10.2,8.9V5.1
				c0-0.3-0.1-0.5-0.3-0.7L5.8,0.3C5.5,0,5-0.1,4.7,0.1z M5.5,8.2l-2-2h1.2l2,2L5.5,8.2z M6.1,3.5l2,2v1.2l-2-2L6.1,3.5z"/>
			<path id="Path_315" class="st3" d="M15.8,20.9c-0.5-0.3-1.1-0.1-1.4,0.4c0,0,0,0,0,0c-1.4,2.6-2.2,5.5-2.1,8.4
				c0,9.6,7.8,17.4,17.4,17.4S47,39.3,47,29.7s-7.8-17.4-17.4-17.4c-2.9,0-5.8,0.7-8.4,2.1c-0.5,0.3-0.7,0.9-0.4,1.4
				c0.3,0.5,0.9,0.7,1.4,0.4c2.3-1.3,4.9-1.9,7.5-1.9c8.5,0,15.3,6.9,15.3,15.4c0,8.5-6.9,15.3-15.4,15.3c-8.5,0-15.3-6.9-15.3-15.3
				c0-2.6,0.6-5.2,1.9-7.5C16.5,21.7,16.3,21.2,15.8,20.9z"/>
			<circle id="Ellipse_23" class="st3" cx="29.6" cy="17.4" r="1"/>
			<circle id="Ellipse_24" class="st3" cx="29.6" cy="42" r="1"/>
			<circle id="Ellipse_25" class="st3" cx="17.4" cy="29.7" r="1"/>
			<circle id="Ellipse_26" class="st3" cx="41.9" cy="29.7" r="1"/>
			<circle id="Ellipse_27" class="st3" cx="38.3" cy="38.4" r="1"/>
			<circle id="Ellipse_28" class="st3" cx="21" cy="38.4" r="1"/>
			<circle id="Ellipse_29" class="st3" cx="38.3" cy="21" r="1"/>
			<path id="Path_316" class="st3" d="M58.3,28.7c-0.5,0-1,0.4-1,0.9c0,0,0,0.1,0,0.1c0,15.3-12.4,27.6-27.6,27.6c-0.6,0-1,0.5-1,1
				s0.5,1,1,1c16.4,0,29.7-13.3,29.7-29.7c0-0.5-0.4-1-0.9-1C58.4,28.7,58.3,28.7,58.3,28.7z"/>
		</g>
	</g>
</g>
<g id="Layer_2">
	<g>
		<g>
			<linearGradient id="SVGID_1_" gradientUnits="userSpaceOnUse" x1="13.7311" y1="28.5299" x2="45.5819" y2="28.5299">
				<stop  offset="4.528621e-07" style="stop-color:#0E6AFF"/>
				<stop  offset="1" style="stop-color:#33DDFF"/>
			</linearGradient>
			<path class="st4" d="M30,2.6c0.3,0.3,0.7,0.5,0.8,0.8c4.1,7.5,8.2,15,11.5,22.9c1.2,2.9,2.3,5.8,2.9,8.9c1,5.2-0.4,9.8-3.7,13.7
				c-2.7,3.2-6.1,5-10.2,5.5c-0.1,0-0.2,0.1-0.3,0.1c-1,0-2,0-3,0c-1.1-0.3-2.2-0.4-3.3-0.8c-6.9-2.2-11.6-9.3-11.1-16.8
				c0.2-2.5,1-4.8,1.8-7c2.4-6.6,5.6-12.9,8.9-19.1C25.7,8.4,27,6,28.3,3.6c0.2-0.4,0.6-0.7,1-1C29.5,2.6,29.8,2.6,30,2.6z
				 M29.7,6.8c-0.2,0.4-0.4,0.6-0.5,0.9c-2.7,5.2-5.4,10.4-7.9,15.7c-1.6,3.3-3,6.7-4,10.2c-0.7,2.3-1.1,4.7-0.5,7.1
				c1.3,5.7,4.7,9.4,10.2,10.7c5.6,1.3,10.2-0.8,13.7-5.6c2.1-2.9,2.9-6.3,2.2-9.9c-0.5-2.2-1.2-4.4-2-6.5c-2.6-6.7-5.9-13-9.2-19.2
				C30.9,9.1,30.3,8,29.7,6.8z"/>
			<linearGradient id="SVGID_2_" gradientUnits="userSpaceOnUse" x1="31.3295" y1="38.151" x2="40.1781" y2="38.151">
				<stop  offset="4.528621e-07" style="stop-color:#0E6AFF"/>
				<stop  offset="1" style="stop-color:#33DDFF"/>
			</linearGradient>
			<path class="st5" d="M40.2,38.2c-0.2,4.2-2.3,7-5.5,9.3c-0.4,0.3-0.8,0.5-1.2,0.8c-0.8,0.5-1.6,0.3-2-0.5c-0.4-0.7-0.2-1.4,0.6-2
				c1.6-1,3-2.1,4-3.7c1.4-2.2,1.6-4.6,0.9-7.1c-0.5-1.7-1.3-3.3-2.3-4.8c-0.6-0.8-0.6-1.7,0.1-2.2c0.7-0.5,1.4-0.3,2,0.5
				c1.9,2.6,3.1,5.5,3.3,8.8C40.2,37.7,40.2,38,40.2,38.2z"/>
		</g>
	</g>
</g>
<g id="Layer_3" class="st0">
	<linearGradient id="SVGID_3_" gradientUnits="userSpaceOnUse" x1="13.3218" y1="36.6761" x2="37.6715" y2="36.6761">
		<stop  offset="4.528621e-07" style="stop-color:#0E6AFF"/>
		<stop  offset="1" style="stop-color:#33DDFF"/>
	</linearGradient>
	<path class="st6" d="M13.3,43.4c0.2-1.1,0.4-2.1,0.6-3.2c1.9-7,8.1-12.1,15.3-12.8c2.6-0.2,5.2,0.1,7.7,1.2
		c0.6,0.2,0.8,0.7,0.8,1.2c-0.1,0.5-0.5,0.9-1,1c-0.2,0-0.5,0-0.7-0.1c-9-3.5-18.8,2.3-20.1,11.8c-0.1,0.6-0.1,1.3-0.2,1.9
		c0,0.9-0.3,1.3-0.8,1.4c-0.6,0.2-1,0-1.5-0.7C13.3,44.6,13.3,44,13.3,43.4z"/>
	<linearGradient id="SVGID_4_" gradientUnits="userSpaceOnUse" x1="20.2867" y1="15.8121" x2="41.1528" y2="15.8121">
		<stop  offset="4.528621e-07" style="stop-color:#0E6AFF"/>
		<stop  offset="1" style="stop-color:#33DDFF"/>
	</linearGradient>
	<path class="st7" d="M41.2,15.7c0,5.7-4.8,10.5-10.4,10.5c-5.6,0-10.5-4.8-10.5-10.4c0-5.7,4.8-10.4,10.4-10.5
		C36.3,5.4,41.1,10.2,41.2,15.7z M23.9,11.3c-2,3-1.7,7.2,0.6,9.9c2.3,2.7,6.4,3.6,9.8,2c2.7-1.2,4.8-4.5,4.5-6.9
		c-2.7,0.9-5.5,0.9-8.2,0C27.8,15.3,25.6,13.6,23.9,11.3z M38.6,13.8c-0.4-2.5-2.5-4.9-5.1-5.7c-2.8-0.9-5.5-0.5-7.9,1.3
		C28.3,14.6,34.6,15.6,38.6,13.8z"/>
	<linearGradient id="SVGID_5_" gradientUnits="userSpaceOnUse" x1="35.332" y1="44.4225" x2="46.9736" y2="44.4225">
		<stop  offset="4.528621e-07" style="stop-color:#0E6AFF"/>
		<stop  offset="1" style="stop-color:#33DDFF"/>
	</linearGradient>
	<path class="st8" d="M40,36.3c0-0.7,0-1.4,0-2.1c0-0.8,0.5-1.3,1.2-1.3c0.7,0,1.1,0.5,1.1,1.3c0,0.7,0,1.3,0,2c0,0,0,0.1,0.1,0.2
		c1.1,0,2.2,0,3.3,0c0.9,0,1.5,0.8,1.2,1.6c-0.2,0.6-0.7,0.7-1.3,0.7c-1.9,0-3.8,0-5.7,0c-0.4,0-0.8,0-1.1,0c-1,0-1.4,0.8-0.9,1.7
		c0.2,0.4,0.5,0.7,0.9,0.9c1.4,1,2.9,2,4.3,3.1c1,0.8,2,1.6,2.9,2.5c0.9,0.9,1.3,2.1,0.8,3.4c-0.5,1.3-1.6,2-2.9,2.2
		c-0.5,0.1-0.9,0.1-1.5,0.1c0,0.7,0,1.4,0,2.1c0,0.8-0.5,1.4-1.2,1.3c-0.7,0-1.1-0.5-1.1-1.3c0-0.7,0-1.4,0-2.2c-0.5,0-1,0-1.4,0
		c-0.7,0-1.3,0-2,0c-0.8,0-1.3-0.5-1.3-1.2c0-0.7,0.5-1.2,1.3-1.2c2.1,0,4.1,0,6.2,0c0.3,0,0.5,0,0.8,0c1-0.1,1.4-0.9,0.8-1.7
		c-0.3-0.5-0.8-0.9-1.2-1.2c-1.3-1-2.8-1.9-4.1-2.9c-1-0.8-2-1.6-2.8-2.5c-1-1-1.2-2.2-0.6-3.5c0.5-1.3,1.6-1.8,2.9-2
		C39,36.3,39.4,36.3,40,36.3z"/>
	<linearGradient id="SVGID_6_" gradientUnits="userSpaceOnUse" x1="21.2728" y1="49.4323" x2="28.2232" y2="49.4323">
		<stop  offset="4.528621e-07" style="stop-color:#0E6AFF"/>
		<stop  offset="1" style="stop-color:#33DDFF"/>
	</linearGradient>
	<path class="st9" d="M23.6,48.3c0-0.4,0-0.8,0-1.2c0-0.7,0.5-1.1,1.1-1.1c0.7,0,1.1,0.5,1.2,1.2c0,0.4,0,0.7,0,1.1
		c0.4,0,0.7,0,1.1,0c0.7,0,1.2,0.5,1.2,1.1c0,0.7-0.5,1.1-1.2,1.2c-0.3,0-0.7,0-1.1,0c0,0.4,0,0.7,0,1.1c0,0.7-0.5,1.2-1.2,1.3
		c-0.7,0-1.1-0.5-1.2-1.2c0-0.3,0-0.7,0-1.1c-0.4,0-0.8,0-1.1,0c-0.7,0-1.2-0.5-1.2-1.1c0-0.7,0.5-1.2,1.2-1.2
		C22.8,48.3,23.2,48.3,23.6,48.3z"/>
	<linearGradient id="SVGID_7_" gradientUnits="userSpaceOnUse" x1="16.8165" y1="5.3791" x2="23.7667" y2="5.3791">
		<stop  offset="4.528621e-07" style="stop-color:#0E6AFF"/>
		<stop  offset="1" style="stop-color:#33DDFF"/>
	</linearGradient>
	<path class="st10" d="M21.5,6.5c0,0.4,0,0.8,0,1.2c0,0.7-0.5,1.2-1.2,1.2c-0.6,0-1.1-0.5-1.1-1.2c0-0.4,0-0.7,0-1.2
		c-0.4,0-0.7,0-1.1,0c-0.7,0-1.2-0.5-1.2-1.2c0-0.7,0.5-1.1,1.3-1.1c0.3,0,0.7,0,1.1,0c0-0.4,0-0.8,0-1.2c0-0.7,0.5-1.1,1.1-1.1
		c0.6,0,1.1,0.5,1.2,1.1c0,0.4,0,0.8,0,1.2c0.4,0,0.8,0,1.1,0c0.7,0,1.2,0.5,1.2,1.1c0,0.7-0.5,1.1-1.2,1.2
		C22.2,6.5,21.9,6.5,21.5,6.5z"/>
	<linearGradient id="SVGID_8_" gradientUnits="userSpaceOnUse" x1="29.5516" y1="35.5103" x2="31.8958" y2="35.5103">
		<stop  offset="4.528621e-07" style="stop-color:#0E6AFF"/>
		<stop  offset="1" style="stop-color:#33DDFF"/>
	</linearGradient>
	<path class="st11" d="M29.6,35.5c0-0.7,0-1.5,0-2.2c0-0.8,0.5-1.3,1.2-1.3c0.7,0,1.1,0.5,1.1,1.3c0,1.5,0,3,0,4.4
		c0,0.7-0.5,1.2-1.2,1.2c-0.7,0-1.1-0.5-1.2-1.2C29.5,37,29.6,36.3,29.6,35.5z"/>
</g>
<g id="Layer_4" class="st0">
	<g class="st1">
		<linearGradient id="SVGID_9_" gradientUnits="userSpaceOnUse" x1="16.4837" y1="53.0762" x2="42.8174" y2="53.0762">
			<stop  offset="4.528621e-07" style="stop-color:#0E6AFF"/>
			<stop  offset="1" style="stop-color:#33DDFF"/>
		</linearGradient>
		<path class="st12" d="M25.3,47.9c0.9,2.6,1.7,5.2,2.6,7.7c0,0,0.1,0,0.1,0.1c0.1-1,0.3-2,0.4-3c0.1-0.4,0-1,0.3-1.3
			c0.3-0.2,0.8-0.1,1.3-0.1c0.9,0,0.9,0,1,0.8c0.1,1.2,0.3,2.3,0.5,3.5c1-2.5,1.8-5.1,2.5-7.8c0.8,0.3,1.5,0.5,2.3,0.7
			c1.4,0.5,2.8,0.9,4.2,1.4c0.5,0.2,1,0.5,1.5,0.8c0.7,0.5,1,1.2,1,2.1c0,1.1,0,2.1,0,3.2c0,0.7-0.2,1.4-0.8,1.9
			c-0.3,0.2-0.8,0.4-1.2,0.4c-7.5,0-14.9,0-22.4,0c-1.1,0-1.9-0.9-1.9-2.1c0-1.2,0-2.4,0-3.7c0-0.6,0.3-1.2,0.8-1.6
			c0.5-0.4,1-0.7,1.5-0.9c2.1-0.8,4.2-1.4,6.4-2.1C25.2,47.9,25.3,47.9,25.3,47.9z"/>
		<linearGradient id="SVGID_10_" gradientUnits="userSpaceOnUse" x1="15.8689" y1="14.1112" x2="43.444" y2="14.1112">
			<stop  offset="4.528621e-07" style="stop-color:#0E6AFF"/>
			<stop  offset="1" style="stop-color:#33DDFF"/>
		</linearGradient>
		<path class="st13" d="M27.9,1c2.3,0,4.5,0,6.8,0c4.4,0,7.8,2.8,8.6,7.1c0.1,0.4,0.1,0.9,0.1,1.3c0,2.3,0,4.7,0,7
			c0,2.3-1.5,4.2-3.7,4.7c-0.4,0.1-0.8,0.1-1.2,0.1c-1.6,0-3.2,0-4.8,0c-0.3,0-0.5,0.1-0.7,0.4c-0.7,1.5-1.4,3-2,4.5
			c-0.3,0.6-0.7,1-1.4,1c-0.7,0-1.1-0.4-1.4-1c-0.7-1.5-1.3-3-2-4.5c-0.1-0.3-0.3-0.4-0.7-0.4c-1.6,0-3.1,0-4.7,0c-3,0-5-2-5-5
			c0-3.5,0-7,0-10.4c0-2.2,1.5-4.1,3.6-4.6C19.9,1.1,20.4,1,20.8,1C23.2,1,25.5,1,27.9,1z M29.6,24.3c0.1-0.3,0.2-0.4,0.3-0.5
			c0.5-1,0.9-2,1.4-3c0.4-1.1,1.2-1.5,2.4-1.5c1.7,0,3.3,0,5,0c1.6,0,2.8-1.2,2.8-2.8c0-2.3,0-4.6,0-6.9c0-0.3,0-0.7-0.1-1
			C40.7,5.2,38.1,3,34.7,3c-4.6,0-9.2,0-13.8,0c-1.9,0-3,1.1-3,3c0,3.4,0,6.9,0,10.3c0,1.8,1.2,2.9,2.9,2.9c1.7,0,3.3,0,5,0
			c1,0,1.8,0.4,2.2,1.4c0.1,0.2,0.2,0.3,0.2,0.5C28.7,22.1,29.1,23.1,29.6,24.3z"/>
		<linearGradient id="SVGID_11_" gradientUnits="userSpaceOnUse" x1="23.1855" y1="38.2483" x2="36.0914" y2="38.2483">
			<stop  offset="4.528621e-07" style="stop-color:#0E6AFF"/>
			<stop  offset="1" style="stop-color:#33DDFF"/>
		</linearGradient>
		<path class="st14" d="M29.5,30.1c1.1,0,2.2,0.2,3.3,0.6c2.2,0.9,3.2,2.6,2.8,4.9c0,0.3-0.1,0.5-0.1,0.8c-0.1,0.4-0.2,0.8,0.3,1.1
			c0.2,0.1,0.4,0.6,0.4,0.9c0,0.7-0.1,1.4-0.2,2.1c-0.1,0.4-0.5,0.7-0.7,1.1c-0.2,0.3-0.5,0.6-0.6,0.9c-0.7,2.1-2.1,3.4-4.2,3.9
			c-1.8,0.4-3.2-0.5-4.4-1.8c-0.6-0.7-1-1.5-1.3-2.4c-0.1-0.2-0.2-0.3-0.4-0.5c-0.2-0.3-0.5-0.5-0.7-0.8c-0.4-0.8-0.5-1.7-0.4-2.6
			c0-0.3,0.3-0.7,0.6-0.9c0.2-0.2,0.2-0.3,0.2-0.6c0-1-0.1-2.1-0.1-3.1c0-0.7,0.4-1.2,1.1-1.5c0.2-0.1,0.4-0.2,0.5-0.4
			c0.6-1.1,1.6-1.4,2.8-1.5C28.8,30.1,29.1,30.1,29.5,30.1z"/>
		<linearGradient id="SVGID_12_" gradientUnits="userSpaceOnUse" x1="27.9345" y1="49.6516" x2="31.3409" y2="49.6516">
			<stop  offset="4.528621e-07" style="stop-color:#0E6AFF"/>
			<stop  offset="1" style="stop-color:#33DDFF"/>
		</linearGradient>
		<path class="st15" d="M29.7,48.6c0.2,0,0.5,0,0.7,0c0.8,0,1.1,0.5,0.8,1.3c-0.2,0.6-0.6,0.9-1.3,0.8c-0.1,0-0.3,0-0.5,0
			c-1.1,0-1.1,0-1.5-1c-0.2-0.5,0.2-1.1,0.7-1.1C29,48.6,29.3,48.6,29.7,48.6z"/>
		<linearGradient id="SVGID_13_" gradientUnits="userSpaceOnUse" x1="31.6924" y1="11.9036" x2="38.1566" y2="11.9036">
			<stop  offset="4.528621e-07" style="stop-color:#0E6AFF"/>
			<stop  offset="1" style="stop-color:#33DDFF"/>
		</linearGradient>
		<path class="st16" d="M34.9,10.5c0.6-0.6,1-1.1,1.5-1.6C37,8.4,38,8.7,38.1,9.5c0,0.3-0.1,0.7-0.4,1c-0.4,0.5-0.9,0.9-1.4,1.4
			c0.5,0.5,1,1,1.4,1.4c0.5,0.5,0.5,1.1,0.1,1.6c-0.4,0.4-1,0.4-1.5-0.1c-0.4-0.4-0.9-0.9-1.3-1.3c0,0-0.1,0-0.2-0.1
			c-0.4,0.4-0.8,0.9-1.3,1.3c-0.5,0.5-1.1,0.6-1.6,0.1c-0.4-0.4-0.3-1,0.2-1.6c0.4-0.4,0.8-0.8,1.2-1.3c0,0,0-0.1,0.1-0.2
			c-0.4-0.4-0.8-0.8-1.2-1.3c-0.2-0.2-0.4-0.5-0.5-0.7c-0.1-0.4,0-0.8,0.4-1.1c0.4-0.2,0.9-0.2,1.2,0.2C33.9,9.4,34.4,10,34.9,10.5z
			"/>
		<linearGradient id="SVGID_14_" gradientUnits="userSpaceOnUse" x1="20.2252" y1="11.9071" x2="28.821" y2="11.9071">
			<stop  offset="4.528621e-07" style="stop-color:#0E6AFF"/>
			<stop  offset="1" style="stop-color:#33DDFF"/>
		</linearGradient>
		<path class="st17" d="M23.4,12.6c0.8-0.7,1.5-1.5,2.3-2.2C26.1,9.9,26.6,9.5,27,9c0.5-0.4,1.1-0.4,1.5,0c0.4,0.4,0.3,1.1-0.1,1.5
			c-1.5,1.4-2.9,2.8-4.4,4.2c-0.5,0.5-1,0.5-1.5,0c-0.7-0.7-1.3-1.3-2-2c-0.4-0.4-0.4-1.1,0-1.5c0.4-0.4,1.1-0.4,1.5,0
			c0.4,0.4,0.8,0.8,1.2,1.2C23.2,12.6,23.3,12.6,23.4,12.6z"/>
	</g>
</g>
</svg>
