<svg id="Layer_2" data-name="Layer 2" xmlns="http://www.w3.org/2000/svg" xmlns:xlink="http://www.w3.org/1999/xlink" viewBox="0 0 31.85 51.92"><defs><style>.cls-1{fill:url(#linear-gradient);}.cls-2{fill:url(#linear-gradient-2);}</style><linearGradient id="linear-gradient" x1="13.73" y1="28.53" x2="45.58" y2="28.53" gradientUnits="userSpaceOnUse"><stop offset="0" stop-color="#0e6aff"/><stop offset="1" stop-color="#3df"/></linearGradient><linearGradient id="linear-gradient-2" x1="31.33" y1="38.15" x2="40.18" y2="38.15" xlink:href="#linear-gradient"/></defs><title>water</title><path class="cls-1" d="M30,2.57a4.36,4.36,0,0,1,.84.82,232.45,232.45,0,0,1,11.5,22.92,43.81,43.81,0,0,1,2.92,8.86,16.07,16.07,0,0,1-3.72,13.7,15.09,15.09,0,0,1-10.15,5.51,1,1,0,0,0-.27.11h-3c-1.1-.26-2.23-.44-3.3-.78a16.44,16.44,0,0,1-11.1-16.8,25.93,25.93,0,0,1,1.8-7,159,159,0,0,1,8.87-19.09q1.89-3.6,3.89-7.15a5.86,5.86,0,0,1,1-1.05Zm-.37,4.26c-.21.37-.36.61-.48.85-2.66,5.23-5.36,10.43-7.95,15.68a68.29,68.29,0,0,0-4,10.22,13.55,13.55,0,0,0-.51,7.08c1.29,5.72,4.7,9.41,10.16,10.65s10.25-.75,13.65-5.57a12.19,12.19,0,0,0,2.15-9.86,42.78,42.78,0,0,0-2-6.52,184.92,184.92,0,0,0-9.15-19.23C30.9,9.05,30.3,8,29.66,6.83Z" transform="translate(-13.73 -2.57)"/><path class="cls-2" d="M40.17,38.2c-.21,4.17-2.34,7-5.46,9.28-.38.27-.76.53-1.16.76a1.33,1.33,0,0,1-2-.47,1.38,1.38,0,0,1,.64-2,12.82,12.82,0,0,0,4-3.73A8.17,8.17,0,0,0,37.05,35a14.59,14.59,0,0,0-2.34-4.76,1.47,1.47,0,0,1,.1-2.21c.66-.51,1.43-.34,2,.5a16.39,16.39,0,0,1,3.33,8.78C40.19,37.65,40.17,38,40.17,38.2Z" transform="translate(-13.73 -2.57)"/></svg>